<?xml version="1.0" encoding="utf-8"?>
<!-- Generator: Adobe Illustrator 19.2.1, SVG Export Plug-In . SVG Version: 6.00 Build 0)  -->
<svg version="1.1" id="Layer_1" xmlns="http://www.w3.org/2000/svg" xmlns:xlink="http://www.w3.org/1999/xlink" x="0px" y="0px"
	 viewBox="0 0 65 65" style="enable-background:new 0 0 65 65;" xml:space="preserve">
<style type="text/css">
	.st0{fill:#FFFFFF;stroke:#FAFEFF;stroke-width:0.3;}
	.st1{fill:#FFFFFF;}
	.st2{fill:#FFFFFF;stroke:#FFFFFF;stroke-width:0.5;}
</style>
<rect width="65" height="65"/>
<title>pass</title>
<desc>Created with Sketch.</desc>
<g id="ikoner-_x2B_-rollovers">
	<g id="Group-5" transform="translate(12.000000, 10.000000)">
		<path id="globe-copy" class="st0" d="M15.5,26.7c0.7-0.7,2-2.1,2.7-3.8h2.2C19.6,24.9,17.7,26.5,15.5,26.7L15.5,26.7z M9.1,22.9
			h2.2c0.7,1.8,2,3.2,2.7,3.8C11.8,26.5,9.9,24.9,9.1,22.9L9.1,22.9z M14.3,14.7c-0.6,0.5-2.1,2-2.9,3.9H9.1
			C10,16.4,11.9,14.8,14.3,14.7L14.3,14.7z M20.4,18.5h-2.3c-0.8-1.9-2.2-3.3-2.9-3.9C17.6,14.8,19.6,16.4,20.4,18.5L20.4,18.5z
			 M15.1,22.3v-3.2h2.6c0.2,0.5,0.3,1.1,0.3,1.7c0,0.5-0.1,1-0.2,1.5H15.1z M15.1,26.3v-3.4h2.5C16.9,24.4,15.7,25.7,15.1,26.3
			L15.1,26.3z M14.5,22.9v3.4c-0.7-0.6-1.8-1.9-2.5-3.4H14.5z M14.5,18.5h-2.4c0.7-1.5,1.8-2.6,2.4-3.2V18.5z M15.1,15.3
			c0.6,0.6,1.7,1.8,2.4,3.2h-2.4V15.3z M11.6,20.8c0-0.6,0.1-1.2,0.3-1.7h2.6v3.2h-2.7C11.6,21.8,11.6,21.3,11.6,20.8L11.6,20.8z
			 M8.7,20.7c0-0.6,0.1-1.1,0.2-1.6h2.3c-0.2,0.5-0.3,1.1-0.3,1.7c0,0.5,0.1,1,0.2,1.5H8.9C8.8,21.8,8.7,21.2,8.7,20.7L8.7,20.7z
			 M20.6,22.3C20.6,22.3,20.5,22.3,20.6,22.3l-2.2,0c0.1-0.5,0.2-1,0.2-1.5c0-0.6-0.1-1.2-0.3-1.7h2.2c0,0,0.1,0,0.1,0
			c0.1,0.5,0.2,1.1,0.2,1.6C20.8,21.3,20.7,21.8,20.6,22.3L20.6,22.3z M14.8,14c-3.7,0-6.6,3-6.6,6.7c0,3.7,3,6.7,6.6,6.7
			c3.7,0,6.6-3,6.6-6.7C21.4,17,18.4,14,14.8,14L14.8,14z"/>
		<path id="pass" class="st1" d="M11,33.2c0,0.5-0.1,0.8-0.4,1c-0.3,0.2-0.7,0.4-1.3,0.4H8.9v1.6H8.1v-4.3h1.2
			c0.5,0,0.9,0.1,1.2,0.3C10.9,32.4,11,32.7,11,33.2z M8.9,34h0.4c0.4,0,0.6-0.1,0.8-0.2c0.2-0.1,0.3-0.3,0.3-0.6
			c0-0.2-0.1-0.4-0.2-0.6c-0.2-0.1-0.4-0.2-0.7-0.2H8.9V34z M14.5,36.2L14.1,35h-1.7L12,36.2h-0.7l1.6-4.4h0.8l1.6,4.4H14.5z
			 M13.9,34.4l-0.4-1.2c0-0.1-0.1-0.2-0.1-0.4c-0.1-0.2-0.1-0.3-0.1-0.4c-0.1,0.2-0.1,0.5-0.2,0.8l-0.4,1.1H13.9z M18.4,35
			c0,0.4-0.1,0.7-0.4,0.9s-0.7,0.3-1.1,0.3c-0.5,0-0.9-0.1-1.2-0.2v-0.7c0.2,0.1,0.4,0.2,0.6,0.2c0.2,0.1,0.4,0.1,0.6,0.1
			c0.3,0,0.5-0.1,0.6-0.2c0.1-0.1,0.2-0.3,0.2-0.4c0-0.2-0.1-0.3-0.2-0.4c-0.1-0.1-0.4-0.2-0.8-0.4c-0.4-0.2-0.7-0.3-0.8-0.5
			c-0.2-0.2-0.2-0.5-0.2-0.7c0-0.4,0.1-0.6,0.4-0.9c0.3-0.2,0.6-0.3,1-0.3c0.4,0,0.8,0.1,1.2,0.3l-0.2,0.6c-0.4-0.2-0.7-0.2-1-0.2
			c-0.2,0-0.4,0-0.5,0.1c-0.1,0.1-0.2,0.2-0.2,0.4c0,0.1,0,0.2,0.1,0.3c0,0.1,0.1,0.2,0.2,0.2c0.1,0.1,0.3,0.2,0.6,0.3
			c0.3,0.1,0.5,0.3,0.7,0.4c0.1,0.1,0.3,0.2,0.3,0.4C18.3,34.7,18.4,34.8,18.4,35z M21.7,35c0,0.4-0.1,0.7-0.4,0.9
			c-0.3,0.2-0.7,0.3-1.1,0.3c-0.5,0-0.9-0.1-1.2-0.2v-0.7c0.2,0.1,0.4,0.2,0.6,0.2c0.2,0.1,0.4,0.1,0.6,0.1c0.3,0,0.5-0.1,0.6-0.2
			c0.1-0.1,0.2-0.3,0.2-0.4c0-0.2-0.1-0.3-0.2-0.4c-0.1-0.1-0.4-0.2-0.8-0.4c-0.4-0.2-0.7-0.3-0.8-0.5C19,33.5,19,33.2,19,33
			c0-0.4,0.1-0.6,0.4-0.9c0.3-0.2,0.6-0.3,1-0.3c0.4,0,0.8,0.1,1.2,0.3l-0.2,0.6c-0.4-0.2-0.7-0.2-1-0.2c-0.2,0-0.4,0-0.5,0.1
			c-0.1,0.1-0.2,0.2-0.2,0.4c0,0.1,0,0.2,0.1,0.3c0,0.1,0.1,0.2,0.2,0.2c0.1,0.1,0.3,0.2,0.6,0.3c0.3,0.1,0.5,0.3,0.7,0.4
			c0.1,0.1,0.3,0.2,0.3,0.4C21.6,34.7,21.7,34.8,21.7,35z"/>
		<path id="Fill-1" class="st2" d="M4,9.7c-0.6,0-1.1,0.5-1.1,1.2v29.5c0,0.6,0.5,1.2,1.1,1.2h21.8c0.6,0,1.1-0.5,1.1-1.2V10.9
			c0-0.6-0.5-1.2-1.1-1.2H4z M25.8,42.5H4c-1.1,0-2-1-2-2.2V10.9c0-1.2,0.9-2.2,2-2.2h21.8c1.1,0,2,1,2,2.2v29.5
			C27.8,41.5,26.9,42.5,25.8,42.5L25.8,42.5z"/>
		<path id="Fill-4" class="st2" d="M31.5,38.8c-0.1,0-0.1,0-0.2,0l-4-0.5c-0.3,0-0.4-0.3-0.4-0.5c0-0.3,0.3-0.5,0.5-0.4l4,0.5
			c0.5,0.1,0.9-0.3,1-0.8l4.1-29.7c0-0.2,0-0.5-0.2-0.7c-0.1-0.2-0.3-0.3-0.6-0.4L15.2,3.5c-0.5-0.1-0.9,0.3-1,0.7l-0.8,5
			c0,0.3-0.3,0.4-0.5,0.4c-0.3,0-0.4-0.3-0.4-0.6l0.8-5c0.2-1,1-1.7,2-1.5l20.4,2.8c0.5,0.1,0.9,0.3,1.2,0.7
			c0.3,0.4,0.4,0.9,0.3,1.4l-4.1,29.7C33.1,38.1,32.3,38.8,31.5,38.8"/>
	</g>
</g>
</svg>
