<?xml version="1.0" encoding="utf-8"?>
<!-- Generator: Adobe Illustrator 19.2.1, SVG Export Plug-In . SVG Version: 6.00 Build 0)  -->
<svg version="1.1" id="Layer_1" xmlns="http://www.w3.org/2000/svg" xmlns:xlink="http://www.w3.org/1999/xlink" x="0px" y="0px"
	 viewBox="0 0 66 65" style="enable-background:new 0 0 66 65;" xml:space="preserve">
<style type="text/css">
	.st0{fill:#FFFFFF;}
</style>
<rect width="66" height="66"/>
<title>visa_immigration</title>
<path class="st0" d="M50.2,40.3c0,0.1-0.1,0.3-0.3,0.3h-3.1v11c0,0.1-0.1,0.2-0.2,0.2H41c-0.1,0-0.2-0.1-0.2-0.2v-11h-3.1
	c-0.1,0-0.3-0.1-0.3-0.3V30c0,0,0,0,0-0.1l0,0v-0.6c0-1.7,1.4-3.1,3.1-3.1h2.1v-2.9l-0.3-0.1c-1-0.5-1.7-1.4-1.8-2.5l-0.1-0.6
	L40,20.2c-0.2,0-0.4-0.1-0.4-0.3c0,0,0,0,0-0.1v-1.3c0-0.2,0.2-0.3,0.3-0.3c0,0,0,0,0.1,0l0.6,0.1v-1.1c0-1.8,1.5-3.3,3.3-3.3
	c1.8,0,3.3,1.5,3.3,3.3v1.1l0.6-0.1c0,0,0,0,0.1,0c0.2,0,0.3,0.2,0.3,0.3v1.3c0,0.2-0.2,0.3-0.3,0.3c0,0,0,0-0.1,0l-0.5-0.1
	l-0.1,0.6c-0.1,1.1-0.8,2.1-1.8,2.6l-0.3,0.1v2.9h2.1c1.7,0,3.1,1.4,3.1,3.1v0.6l0,0.1c0,0,0,0,0,0L50.2,40.3L50.2,40.3z M19.8,30.3
	c0-1.8,1.5-3.2,3.2-3.2h2.2v-2c0.8,0.2,1.6,0.2,2.3-0.1v2.2h2.2c1.8,0,3.2,1.5,3.2,3.2v2.2H19.8L19.8,30.3L19.8,30.3z M21.6,19.8
	c0.1-1.2,0.1-2.4,0.4-3.3c0.5-1.8,1.9-2.6,4.3-2.6c0,0,0,0,0,0c0,0,0,0,0,0c2.5,0,3.8,0.8,4.3,2.6c0.3,0.9,0.3,2.1,0.4,3.3
	c0.1,1.4,0.2,2.7,0.6,3.6h-2.3c0.4-0.6,0.6-1.4,0.6-2.1v-2.7c0-0.2,0-0.2,0-0.3l0,0c0-0.1-0.1-0.2-0.1-0.3c-0.1-0.1-0.2-0.2-0.4-0.2
	c-0.9-0.1-1.4-1.6-1.5-2.2c-0.1-0.3-0.3-0.5-0.6-0.4c-0.2,0-0.3,0.1-0.4,0.3c-0.1,0.1-1.3,2.3-4.1,2.3c-0.1,0-0.1,0-0.2,0
	c-0.2,0.1-0.4,0.3-0.4,0.5v3.1c0,0.8,0.2,1.5,0.6,2.1h-1.9C21.5,22.4,21.5,21.1,21.6,19.8z M24.8,23.7c-0.1-0.2-0.3-0.4-0.5-0.4
	c-0.6-0.6-0.9-1.3-0.9-2.1v-2.6c2-0.2,3.2-1.2,3.9-2c0.3,0.7,0.8,1.6,1.6,1.9v2.7c0,1.6-1.2,3-2.8,3C25.7,24.1,25.2,24,24.8,23.7z
	 M51.3,29.8v-0.5c0-2.3-1.9-4.2-4.2-4.2H46V24c1-0.6,1.8-1.6,2-2.8c0.6-0.1,1.1-0.7,1.1-1.4v-1.3c0-0.6-0.4-1.2-1-1.3v0
	c0-2.4-1.9-4.3-4.3-4.3c-2.4,0-4.3,1.9-4.3,4.3v0c-0.6,0.2-1,0.7-1,1.3v1.3c0,0.7,0.5,1.2,1.1,1.4c0.3,1.2,1,2.2,2,2.8v1.2h-1.1
	c-2.3,0-4.2,1.9-4.2,4.2v0.5c0,0.1,0,0.1,0,0.2v2.6H34v-2.2c0-2.4-1.9-4.3-4.3-4.3h-1.1v-1.6c0,0,0,0,0,0H33
	c0.3,0.1,0.6-0.1,0.6-0.4s-0.1-0.6-0.4-0.6c0,0-0.1,0-0.1,0c-0.7-0.1-0.8-2-0.9-3.6c-0.1-1.2-0.1-2.5-0.4-3.5
	c-1-3.4-4.3-3.4-5.3-3.4c0,0,0,0,0,0c0,0,0,0,0,0c-1.1,0-4.4,0-5.3,3.4c-0.3,1-0.4,2.3-0.4,3.5c-0.1,1.6-0.2,3.5-0.9,3.6
	c-0.3,0.1-0.5,0.3-0.4,0.6c0,0.2,0.3,0.4,0.5,0.4h4.1c0.1,0.1,0.2,0.1,0.3,0.2V26H23c-2.4,0-4.3,1.9-4.3,4.3v2.2h-3.3
	c-0.3,0-0.5,0.2-0.5,0.5s0.2,0.5,0.5,0.5h3.3v0H34v0h2.4v6.7c0,0.7,0.6,1.3,1.3,1.3h2.1v9.9c0,0.7,0.6,1.2,1.2,1.2h5.7
	c0.7,0,1.2-0.6,1.2-1.2v-9.9H50c0.7,0,1.3-0.6,1.3-1.3V30C51.3,29.9,51.3,29.8,51.3,29.8L51.3,29.8z"/>
</svg>
