<?xml version="1.0" encoding="utf-8"?>
<!-- Generator: Adobe Illustrator 19.2.1, SVG Export Plug-In . SVG Version: 6.00 Build 0)  -->
<svg version="1.1" id="Layer_1" xmlns="http://www.w3.org/2000/svg" xmlns:xlink="http://www.w3.org/1999/xlink" x="0px" y="0px"
	 viewBox="0 0 65 65" style="enable-background:new 0 0 65 65;" xml:space="preserve">
<style type="text/css">
	.st0{fill:#FFFFFF;}
</style>
<rect width="65" height="65"/>
<title>visitNorway</title>
<desc>Created with Sketch.</desc>
<g id="ikoner-_x2B_-rollovers">
	<g id="Group" transform="translate(3.000000, 9.000000)">
		<path id="Fill-1" class="st0" d="M21.8,33.9L23,33l-7.7-10.8c-0.3-0.4-0.9-0.4-1.2,0L4.8,34.6l-0.1,0.2l1.2,0.9l8.9-11.8
			L21.8,33.9z"/>
		<path id="Fill-4" class="st0" d="M41.2,33.7l1.2-0.9L29.7,15.9c-0.1-0.2-0.4-0.3-0.6-0.3c-0.2,0-0.5,0.1-0.6,0.3l-9.2,12.2
			l-0.1,0.2l1.2,0.9l8.8-11.6L41.2,33.7z"/>
		<polygon id="Fill-13" class="st0" points="17.6,5.1 18.7,5.1 18.7,3.3 17.6,3.3 		"/>
		<polygon id="Fill-15" class="st0" points="17.6,16.7 18.7,16.7 18.7,14.9 17.6,14.9 		"/>
		<polygon id="Fill-16" class="st0" points="23.1,10.6 24.9,10.6 24.9,9.5 23.1,9.5 		"/>
		<polygon id="Fill-17" class="st0" points="11.3,10.6 13.1,10.6 13.1,9.5 11.3,9.5 		"/>
		<polygon id="Fill-18" class="st0" points="22.6,15.2 21.3,13.9 22,13.1 23.3,14.4 		"/>
		<polygon id="Fill-19" class="st0" points="14.4,7.1 13.1,5.8 13.8,5.1 15.1,6.3 		"/>
		<polygon id="Fill-20" class="st0" points="22,7.1 21.3,6.3 22.6,5.1 23.3,5.8 		"/>
		<polygon id="Fill-21" class="st0" points="13.8,15.2 13.1,14.4 14.4,13.1 15.1,13.9 		"/>
		<path id="Fill-1_1_" class="st0" d="M44.5,38.2c-0.6,0-1-0.2-2-0.9c-0.1-0.1-0.2-0.1-0.3-0.2c-1-0.7-1.7-1-2.6-1
			c-0.9,0-1.6,0.3-2.6,1c-0.1,0-0.1,0.1-0.3,0.2c-0.9,0.6-1.4,0.9-2,0.9c-0.6,0-1-0.2-2-0.9c-0.1-0.1-0.2-0.1-0.3-0.2
			c-1-0.7-1.7-1-2.6-1c-0.9,0-1.6,0.3-2.6,1c-0.1,0-0.1,0.1-0.3,0.2c-1,0.6-1.4,0.9-2,0.9c-0.6,0-1-0.2-2-0.9
			c-0.1-0.1-0.2-0.1-0.3-0.2c-1-0.7-1.7-1-2.6-1c-1,0-2.1,0.4-3.4,1.1c-0.6,0.3-0.9,0.8-0.7,1.2c0.2,0.4,0.8,0.4,1.3,0.1
			c1.1-0.5,2.1-0.9,2.7-0.9c0.6,0,1,0.2,2,0.9c0.1,0.1,0.2,0.1,0.3,0.2c1,0.6,1.7,0.9,2.6,0.9c0.9,0,1.6-0.3,2.6-0.9
			c0.1,0,0.1-0.1,0.3-0.2c1-0.7,1.4-0.9,2-0.9c0.6,0,1,0.2,2,0.9c0.1,0.1,0.2,0.1,0.3,0.2c1,0.7,1.7,0.9,2.6,0.9
			c0.9,0,1.6-0.3,2.6-0.9c0.1,0,0.1-0.1,0.3-0.2c1-0.6,1.4-0.9,2-0.9c0.6,0,1,0.2,2,0.9c0.1,0.1,0.2,0.1,0.3,0.2
			c1,0.7,1.7,0.9,2.6,0.9c0.9,0,1.6-0.3,2.6-0.9c0.1,0,0.1-0.1,0.3-0.2c0.5-0.3,0.6-0.8,0.4-1.2c-0.3-0.4-0.8-0.4-1.2-0.1
			C45.5,38,45.1,38.2,44.5,38.2z"/>
		<path id="Fill-1-Copy" class="st0" d="M52.3,40.7c-1-0.7-1.7-1-2.6-1c-0.9,0-1.6,0.3-2.6,1c-0.1,0-0.1,0.1-0.3,0.2
			c-0.9,0.6-1.4,0.9-2,0.9c-0.6,0-1-0.2-2-0.9c-0.1-0.1-0.2-0.1-0.3-0.2c-1-0.7-1.7-1-2.6-1c-0.9,0-1.6,0.3-2.6,1
			c-0.1,0-0.1,0.1-0.3,0.2c-1,0.6-1.4,0.9-2,0.9c-0.6,0-1-0.2-2-0.9c-0.5-0.3-1-0.3-1.2,0.1c-0.3,0.4-0.1,0.9,0.4,1.2
			c0.1,0.1,0.2,0.1,0.3,0.2c1,0.6,1.7,0.9,2.6,0.9c0.9,0,1.6-0.3,2.6-0.9c0.1,0,0.1-0.1,0.3-0.2c1-0.7,1.4-0.9,2-0.9
			c0.6,0,1,0.2,2,0.9c0.1,0.1,0.2,0.1,0.3,0.2c1,0.7,1.7,0.9,2.6,0.9c0.9,0,1.6-0.3,2.6-0.9c0.1,0,0.1-0.1,0.3-0.2
			c1-0.6,1.4-0.9,2-0.9c0.6,0,1,0.2,2,0.9c0.5,0.3,1,0.3,1.2-0.1c0.3-0.4,0.1-0.9-0.4-1.2C52.4,40.8,52.3,40.8,52.3,40.7z"/>
		<path id="Oval" class="st0" d="M18.1,13.7c2.1,0,3.8-1.7,3.8-3.7s-1.7-3.7-3.8-3.7s-3.8,1.7-3.8,3.7S16,13.7,18.1,13.7z
			 M18.1,12.6c-1.4,0-2.6-1.1-2.6-2.6s1.2-2.6,2.6-2.6s2.6,1.1,2.6,2.6S19.5,12.6,18.1,12.6z"/>
	</g>
</g>
</svg>
